<svg width="16" height="16" viewBox="0 0 16 16" fill="none" xmlns="http://www.w3.org/2000/svg">
<path fill-rule="evenodd" clip-rule="evenodd" d="M8.00055 2.16732C6.71188 2.16732 5.66721 3.21199 5.66721 4.50065C5.66721 5.78932 6.71188 6.83398 8.00055 6.83398C9.28921 6.83398 10.3339 5.78932 10.3339 4.50065C10.3339 3.21199 9.28921 2.16732 8.00055 2.16732ZM4.33388 4.50065C4.33388 2.47561 5.9755 0.833984 8.00055 0.833984C10.0256 0.833984 11.6672 2.47561 11.6672 4.50065C11.6672 6.5257 10.0256 8.16732 8.00055 8.16732C5.9755 8.16732 4.33388 6.5257 4.33388 4.50065Z" fill="#787A80"/>
<path fill-rule="evenodd" clip-rule="evenodd" d="M4.06992 10.1673C3.60771 10.1673 3.24643 10.3924 3.09979 10.7157C2.89681 11.1633 2.71301 11.6961 2.66964 12.2014C2.65025 12.4273 2.74444 12.5938 2.87423 12.6744C3.56033 13.1006 5.15014 13.834 8.00055 13.834C10.851 13.834 12.4408 13.1006 13.1269 12.6744C13.2567 12.5938 13.3508 12.4273 13.3315 12.2014C13.2881 11.6961 13.1043 11.1633 12.9013 10.7157C12.7547 10.3924 12.3934 10.1673 11.9312 10.1673H4.06992ZM1.8855 10.165C2.2908 9.27136 3.19582 8.83398 4.06992 8.83398H11.9312C12.8053 8.83398 13.7103 9.27136 14.1156 10.165C14.3484 10.6783 14.5982 11.3683 14.6599 12.0874C14.7161 12.7422 14.4439 13.4259 13.8304 13.807C12.9281 14.3676 11.0936 15.1673 8.00055 15.1673C4.90748 15.1673 3.07301 14.3676 2.17066 13.807C1.55715 13.4259 1.28499 12.7422 1.34119 12.0874C1.40291 11.3683 1.65271 10.6783 1.8855 10.165Z" fill="#787A80"/>
</svg>
