<svg width="16" height="16" viewBox="0 0 16 16" fill="none" xmlns="http://www.w3.org/2000/svg">
<path d="M8.66699 4.33268C8.66699 3.96449 8.36851 3.66602 8.00033 3.66602C7.63213 3.66602 7.33366 3.96449 7.33366 4.33268V7.99935C7.33366 8.17616 7.4039 8.34573 7.52892 8.47075L9.52892 10.4708C9.78927 10.7311 10.2114 10.7311 10.4717 10.4708C10.7321 10.2104 10.7321 9.78829 10.4717 9.52794L8.66699 7.72321V4.33268Z" fill="#787A80"/>
<path fill-rule="evenodd" clip-rule="evenodd" d="M8.00033 0.666016C3.95024 0.666016 0.666992 3.94926 0.666992 7.99935C0.666992 12.0494 3.95024 15.3327 8.00033 15.3327C12.0504 15.3327 15.3337 12.0494 15.3337 7.99935C15.3337 3.94926 12.0504 0.666016 8.00033 0.666016ZM2.00033 7.99935C2.00033 4.68564 4.68662 1.99935 8.00033 1.99935C11.314 1.99935 14.0003 4.68564 14.0003 7.99935C14.0003 11.3131 11.314 13.9993 8.00033 13.9993C4.68662 13.9993 2.00033 11.3131 2.00033 7.99935Z" fill="#787A80"/>
</svg>
